<svg width="40" height="40" viewBox="0 0 40 40" fill="none" xmlns="http://www.w3.org/2000/svg">
<g clip-path="url(#clip0_4624_7993)">
<path d="M20.0002 3.3335C10.8002 3.3335 3.3335 10.8002 3.3335 20.0002C3.3335 29.2002 10.8002 36.6668 20.0002 36.6668C29.2002 36.6668 36.6668 29.2002 36.6668 20.0002C36.6668 10.8002 29.2002 3.3335 20.0002 3.3335ZM20.0002 33.3335C12.6335 33.3335 6.66683 27.3668 6.66683 20.0002C6.66683 16.9168 7.71683 14.0835 9.4835 11.8335L28.1668 30.5168C25.9168 32.2835 23.0835 33.3335 20.0002 33.3335ZM30.5168 28.1668L11.8335 9.4835C14.0835 7.71683 16.9168 6.66683 20.0002 6.66683C27.3668 6.66683 33.3335 12.6335 33.3335 20.0002C33.3335 23.0835 32.2835 25.9168 30.5168 28.1668Z" fill="#D65D66"/>
</g>
<defs>
<clipPath id="clip0_4624_7993">
<rect width="40" height="40" fill="white"/>
</clipPath>
</defs>
</svg>
