<svg width="45" height="55" viewBox="0 0 45 55" fill="none" xmlns="http://www.w3.org/2000/svg">
<path d="M13.336 53.657C10.068 53.1134 9.49201 50.6447 9.63438 49.1385C8.79626 48.46 7.19281 46.6029 5.96521 42.6118C4.58069 42.8808 2.06432 43.0959 0.697539 40.5139C-1.0109 37.2864 2.58081 33.0907 4.68387 31.3156C5.99768 13.2416 17.5705 8.6992 23.0497 9.20723C35.8061 9.59453 39.8169 24.1254 40.244 31.2259C40.9559 31.8714 45.829 35.8341 44.2629 40.8367C43.01 44.8388 39.6745 43.7594 38.1084 43.329C37.4251 46.8147 35.356 48.762 34.4068 49.2999C34.1221 51.3978 33.4278 53.6862 30.1357 53.9798C27.3208 54.2308 25.8171 52.0971 25.2951 50.9137H22.4802H19.885C19.2057 52.7784 16.7854 54.2308 13.336 53.657Z" fill="#DBDEE1" stroke="#C1C6CB" stroke-width="0.5"/>
<path d="M21.8908 1.77998C23.5815 3.88232 22.6798 7.03583 22.6798 7.38622C22.4543 7.38622 20.3127 7.15262 18.0583 5.51747C16.2548 4.20935 16.1797 1.85785 16.3676 0.845612C17.1566 0.144832 20.2 -0.322354 21.8908 1.77998Z" fill="#DBDEE1" stroke="#C1C6CB" stroke-width="0.5" stroke-linecap="round"/>
<path d="M23.1196 2.81883C21.9484 4.70435 22.0419 6.78737 22.8191 7.7902C23.0396 6.76033 25.0005 6.84919 25.3272 6.91226C32.1934 7.06365 32.4609 3.34192 32.2887 1.07153C27.2209 -0.406173 24.594 0.445304 23.1196 2.81883Z" fill="#DBDEE1"/>
<path d="M22.6519 10.4641L22.6519 9.20426L22.8191 7.7902M22.8191 7.7902C22.0419 6.78737 21.9484 4.70435 23.1196 2.81883C24.594 0.445304 27.2209 -0.406173 32.2887 1.07153C32.4609 3.34192 32.1934 7.06365 25.3272 6.91226C25.0005 6.84919 23.0396 6.76033 22.8191 7.7902ZM22.8191 7.7902C22.7422 6.134 24.1571 2.61745 28.5531 1.62962" stroke="#C1C6CB" stroke-width="0.5" stroke-linecap="round"/>
<path d="M23.9563 36.0773C23.9563 36.4868 23.7937 36.8796 23.5041 37.1691C23.2145 37.4587 22.8218 37.6214 22.4123 37.6214C22.0027 37.6214 21.61 37.4587 21.3204 37.1691C21.0308 36.8796 20.8682 36.4868 20.8682 36.0773C20.8682 35.6678 21.0308 35.275 21.3204 34.9855C21.61 34.6959 22.0027 34.5332 22.4123 34.5332C22.8218 34.5332 23.2145 34.6959 23.5041 34.9855C23.7937 35.275 23.9563 35.6678 23.9563 36.0773Z" fill="white"/>
<path fill-rule="evenodd" clip-rule="evenodd" d="M22.3898 27.2389C21.8726 27.2389 21.4286 27.3933 21.116 27.6141C20.8149 27.8272 20.6659 28.0751 20.6226 28.2889C20.5587 28.5748 20.3854 28.8242 20.1397 28.9837C19.894 29.1432 19.5956 29.2001 19.3085 29.1421C19.0214 29.0841 18.7684 28.9159 18.6039 28.6735C18.4394 28.4312 18.3764 28.134 18.4285 27.8458C18.6037 26.9764 19.1426 26.2669 19.8251 25.7844C20.5354 25.2826 21.4356 25 22.3898 25C24.364 25 26.4106 26.3202 26.4106 28.4402C26.4106 29.6678 25.6811 30.6606 24.7361 31.2397C24.4828 31.3947 24.1783 31.4427 23.8896 31.3732C23.6009 31.3037 23.3516 31.1224 23.1966 30.8691C23.0416 30.6158 22.9936 30.3113 23.0631 30.0226C23.1326 29.7339 23.3139 29.4846 23.5672 29.3296C24.0073 29.0602 24.1717 28.7166 24.1717 28.4402C24.1717 27.9971 23.6197 27.2389 22.3898 27.2389Z" fill="white"/>
<path fill-rule="evenodd" clip-rule="evenodd" d="M22.39 30.2229C23.0076 30.2229 23.5094 30.7232 23.5094 31.3424V32.502C23.5094 32.7989 23.3915 33.0836 23.1816 33.2936C22.9716 33.5035 22.6869 33.6214 22.39 33.6214C22.0931 33.6214 21.8083 33.5035 21.5984 33.2936C21.3885 33.0836 21.2705 32.7989 21.2705 32.502V31.3424C21.2705 30.7247 21.7716 30.2229 22.39 30.2229Z" fill="white"/>
<path fill-rule="evenodd" clip-rule="evenodd" d="M25.1145 29.7104C25.1902 29.8366 25.2402 29.9764 25.2617 30.122C25.2832 30.2675 25.2758 30.4159 25.24 30.5586C25.2041 30.7013 25.1405 30.8355 25.0527 30.9536C24.965 31.0716 24.8548 31.1713 24.7285 31.2467L22.9652 32.3021C22.7104 32.4547 22.4056 32.4998 22.1176 32.4275C21.8296 32.3553 21.5821 32.1716 21.4296 31.9169C21.277 31.6622 21.2319 31.3573 21.3042 31.0693C21.3764 30.7813 21.5601 30.5338 21.8148 30.3813L23.5789 29.3251C23.7051 29.2496 23.8449 29.1997 23.9904 29.1782C24.1358 29.1568 24.2841 29.1642 24.4267 29.2C24.5693 29.2359 24.7034 29.2995 24.8215 29.3872C24.9395 29.4749 25.0391 29.5842 25.1145 29.7104Z" fill="white"/>
</svg>
